<svg width="40" height="30" viewBox="0 0 40 30" fill="none" xmlns="http://www.w3.org/2000/svg">
<path d="M7.8611 7.27246C4.93554 7.27246 2.55713 9.69282 2.55713 12.67C2.55713 15.5903 4.80155 17.9538 7.72711 18.0561C7.81644 18.0447 7.90577 18.0447 7.97276 18.0561C7.9951 18.0561 8.00626 18.0561 8.0286 18.0561C8.03976 18.0561 8.03976 18.0561 8.05093 18.0561C10.9095 17.9538 13.1539 15.5903 13.1651 12.67C13.1651 9.69282 10.7867 7.27246 7.8611 7.27246Z" fill="#117891"/>
<path d="M29.6765 7.27246C26.751 7.27246 24.3726 9.69282 24.3726 12.67C24.3726 15.5903 26.617 17.9538 29.5425 18.0561C29.6319 18.0447 29.7212 18.0447 29.7882 18.0561C29.8105 18.0561 29.8217 18.0561 29.844 18.0561C29.8552 18.0561 29.8552 18.0561 29.8664 18.0561C32.7249 17.9538 34.9693 15.5903 34.9805 12.67C34.9805 9.69282 32.6021 7.27246 29.6765 7.27246Z" fill="#117891"/>
<path d="M13.5335 21.0799C10.4181 18.9664 5.33747 18.9664 2.19975 21.0799C0.781638 22.0458 0 23.3525 0 24.7502C0 26.1479 0.781638 27.4433 2.18859 28.3978C3.75186 29.4659 5.80645 30 7.86105 30C9.91564 30 11.9702 29.4659 13.5335 28.3978C14.9405 27.4319 15.7221 26.1365 15.7221 24.7275C15.7109 23.3298 14.9405 22.0344 13.5335 21.0799Z" fill="#107791"/>
<path d="M35.3489 21.0798C32.2335 18.9662 27.1529 18.9662 24.0152 21.0798C22.5971 22.0457 21.8154 23.3524 21.8154 24.7501C21.8154 26.1478 22.5971 27.4432 24.004 28.3977C25.5673 29.4658 27.6219 29.9999 29.6765 29.9999C31.7311 29.9999 33.7857 29.4658 35.3489 28.3977C36.7559 27.4318 37.5375 26.1364 37.5375 24.7274C37.5264 23.3297 36.7559 22.0343 35.3489 21.0798Z" fill="#107791"/>
<path d="M18.9765 4.54541C16.0509 4.54541 13.6725 6.96577 13.6725 9.94292C13.6725 12.8633 15.9169 15.2268 18.8425 15.3291C18.9318 15.3177 19.0211 15.3177 19.0881 15.3291C19.1105 15.3291 19.1216 15.3291 19.144 15.3291C19.1551 15.3291 19.1551 15.3291 19.1663 15.3291C22.0248 15.2268 24.2693 12.8633 24.2804 9.94292C24.2804 6.96577 21.902 4.54541 18.9765 4.54541Z" fill="#117891"/>
<path d="M24.649 18.3527C21.5336 16.2392 16.4529 16.2392 13.3152 18.3527C11.8971 19.3186 11.1155 20.6254 11.1155 22.023C11.1155 23.4207 11.8971 24.7161 13.3041 25.6706C14.8673 26.7388 16.9219 27.2728 18.9765 27.2728C21.0311 27.2728 23.0857 26.7388 24.649 25.6706C26.0559 24.7048 26.8376 23.4094 26.8376 22.0003C26.8264 20.6026 26.0559 19.3072 24.649 18.3527Z" fill="#107791"/>
<path d="M19.0432 0.00269881C19.1062 0.00526866 19.1062 0.00526866 19.1704 0.00789043C19.5683 0.0620793 19.909 0.226064 20.2538 0.379393C20.304 0.401522 20.3542 0.423633 20.4045 0.445729C20.5554 0.512198 20.706 0.579055 20.8566 0.645976C20.8996 0.665076 20.9427 0.684176 20.987 0.703854C21.1869 0.792594 21.3867 0.881548 21.5863 0.970634C21.8423 1.08472 22.099 1.19766 22.3559 1.3105C22.8969 1.54822 23.4362 1.78818 23.9752 2.02849C24.4343 2.23312 24.8939 2.43708 25.3546 2.63956C25.8166 2.84262 26.278 3.0463 26.7378 3.2522C26.8159 3.28708 26.8941 3.32183 26.9723 3.35645C27.0851 3.40633 27.1975 3.45658 27.3099 3.50692C27.3602 3.52901 27.3602 3.52901 27.4115 3.55155C27.6227 3.64687 27.7852 3.73293 27.8645 3.91839C27.8678 4.04334 27.8427 4.13161 27.7455 4.23133C27.4778 4.40041 27.1679 4.52592 26.8641 4.65246C26.5346 4.7914 26.2074 4.93242 25.884 5.07938C25.562 5.22554 25.2387 5.36958 24.9139 5.51209C24.5723 5.66206 24.2311 5.81254 23.8907 5.96412C23.8509 5.98187 23.811 5.99962 23.77 6.01791C23.6498 6.07144 23.5297 6.12499 23.4095 6.17855C22.8664 6.4207 22.3225 6.66193 21.7774 6.90142C21.4791 7.03252 21.1816 7.16454 20.8844 7.29704C20.7658 7.34982 20.6471 7.40257 20.5284 7.45531C20.449 7.49062 20.3697 7.52601 20.2904 7.56147C20.1746 7.61328 20.0584 7.66479 19.9423 7.71623C19.9078 7.73174 19.8734 7.74725 19.8378 7.76322C19.543 7.89314 19.2815 7.95143 18.9419 7.95191C18.914 7.95267 18.8862 7.95342 18.8575 7.9542C18.4056 7.95611 18.0247 7.77532 17.6477 7.60419C17.578 7.57305 17.5083 7.54191 17.4387 7.51078C17.3677 7.479 17.2968 7.4471 17.226 7.41517C17.0565 7.33891 16.8865 7.26341 16.7164 7.18795C16.4759 7.08119 16.2357 6.97399 15.9955 6.86689C15.5364 6.66226 15.0768 6.45829 14.616 6.25582C14.0751 6.0181 13.5358 5.77814 12.9968 5.53784C12.8764 5.48416 12.7559 5.43051 12.6355 5.37687C12.5956 5.35912 12.5558 5.34137 12.5147 5.32308C12.259 5.20931 12.0027 5.09625 11.7461 4.98361C11.5706 4.90651 11.3952 4.82918 11.2198 4.75184C11.1333 4.71377 11.0467 4.67581 10.96 4.63795C10.8362 4.58383 10.7126 4.52932 10.5891 4.47473C10.552 4.45865 10.5149 4.44258 10.4767 4.42601C10.2557 4.32771 10.0819 4.24363 9.99897 4.04975C9.99563 3.92248 10.0372 3.84771 10.118 3.7368C10.2487 3.64899 10.3856 3.58049 10.5367 3.51489C10.5786 3.4966 10.6204 3.47831 10.6636 3.45947C10.7084 3.44007 10.7531 3.42066 10.7993 3.40067C10.8707 3.36954 10.9421 3.33835 11.0135 3.30716C11.0622 3.28587 11.1109 3.2646 11.1597 3.24334C11.3941 3.14106 11.6274 3.03724 11.8605 2.93319C12.2418 2.76319 12.6241 2.5946 13.0068 2.42646C13.3007 2.2973 13.5939 2.16736 13.8866 2.03685C14.2237 1.8866 14.5614 1.7373 14.8997 1.58868C15.4418 1.35047 15.9822 1.11012 16.5222 0.869201C16.7656 0.760617 17.0092 0.6522 17.2529 0.544091C17.3326 0.508758 17.4122 0.473372 17.4917 0.437934C17.6069 0.386676 17.7222 0.335675 17.8376 0.284736C17.8717 0.269492 17.9059 0.254247 17.941 0.23854C18.2957 0.0827542 18.6264 -0.018048 19.0432 0.00269881Z" fill="#1C8094"/>
<path d="M13.3603 5.68164C13.5038 5.70228 13.6057 5.73132 13.7315 5.79067C13.7668 5.8072 13.8022 5.82374 13.8386 5.84077C13.8955 5.86776 13.8955 5.86776 13.9535 5.89529C14.0351 5.93354 14.1167 5.97178 14.1984 6.01001C14.2608 6.03941 14.2608 6.03941 14.3245 6.06941C14.5137 6.15828 14.7037 6.24603 14.8937 6.33374C14.9491 6.35933 14.9491 6.35933 15.0055 6.38543C15.3228 6.53205 15.6409 6.67742 15.9591 6.82267C16.2368 6.94947 16.5139 7.07703 16.7906 7.20507C16.8276 7.22213 16.8646 7.2392 16.9027 7.25678C17.0771 7.33732 17.2513 7.41825 17.4246 7.50023C18.1094 7.82244 18.7874 7.9987 19.5903 7.84231C19.9496 7.74641 20.2754 7.58688 20.6009 7.43544C20.6334 7.42036 20.6659 7.40527 20.6994 7.38973C20.8692 7.31081 21.0385 7.2313 21.2076 7.15154C21.4403 7.04203 21.6747 6.93486 21.9093 6.82793C22.3363 6.63319 22.7622 6.43693 23.1876 6.23995C23.309 6.18376 23.4305 6.12765 23.5519 6.07155C23.5929 6.05263 23.6339 6.0337 23.6761 6.0142C23.7546 5.97794 23.8331 5.94169 23.9116 5.90544C23.947 5.8891 23.9824 5.87276 24.0188 5.85593C24.0498 5.84161 24.0808 5.82729 24.1128 5.81254C24.1762 5.78303 24.2388 5.75236 24.3007 5.72091C24.39 5.68164 24.39 5.68164 24.5026 5.68164C24.5052 5.92352 24.5072 6.16541 24.5084 6.4073C24.509 6.51965 24.5098 6.632 24.5111 6.74435C24.5123 6.85306 24.513 6.96176 24.5133 7.07047C24.5135 7.11166 24.5139 7.15284 24.5145 7.19403C24.5203 7.60312 24.4675 7.96136 24.0958 8.26476C23.8656 8.43249 23.6148 8.55193 23.3419 8.6709C23.2954 8.69151 23.2489 8.71216 23.2025 8.73284C23.1072 8.77525 23.0118 8.81752 22.9164 8.85971C22.7045 8.95359 22.4945 9.05011 22.2844 9.14651C22.2043 9.18313 22.1242 9.21974 22.0441 9.25635C21.8774 9.33266 21.7109 9.40936 21.5447 9.48626C20.4175 10.0067 19.3403 10.4096 18.0112 10.1415C17.326 9.98963 16.7236 9.67874 16.1144 9.39696C15.9497 9.32095 15.7847 9.24551 15.6196 9.17016C15.5391 9.13338 15.4586 9.09654 15.3782 9.05963C15.1903 8.97349 15.0022 8.8878 14.8127 8.80384C14.7464 8.77441 14.6802 8.74483 14.614 8.7152C14.5314 8.67832 14.4487 8.64172 14.3657 8.60547C13.9772 8.43104 13.5896 8.21386 13.441 7.86644C13.3567 7.62023 13.3455 7.38692 13.3493 7.13308C13.3495 7.09093 13.3496 7.04879 13.3497 7.00665C13.3502 6.89699 13.3513 6.78734 13.3525 6.67768C13.3537 6.56528 13.3542 6.45288 13.3548 6.34048C13.356 6.12086 13.3579 5.90125 13.3603 5.68164Z" fill="#979797"/>
<path d="M39.0003 9.00454H35.005V5.39747C35.005 4.9269 34.5824 4.54541 34.0612 4.54541C33.54 4.54541 33.1175 4.9269 33.1175 5.39747V9.00454H29.1221C28.6009 9.00454 28.1783 9.38603 28.1783 9.8566C28.1783 10.3272 28.6009 10.7087 29.1221 10.7087H33.1175V14.3157C33.1175 14.7863 33.54 15.1678 34.0612 15.1678C34.5824 15.1678 35.005 14.7863 35.005 14.3157V10.7087H39.0003C39.5216 10.7087 39.9441 10.3272 39.9441 9.8566C39.9441 9.38603 39.5216 9.00454 39.0003 9.00454Z" fill="#333333"/>
</svg>
