<svg width="26" height="23" viewBox="0 0 26 23" fill="none" xmlns="http://www.w3.org/2000/svg">
<mask id="mask0_1_1860" style="mask-type:luminance" maskUnits="userSpaceOnUse" x="0" y="0" width="26" height="23">
<path d="M0 0.25H25.3614V22.75H0V0.25Z" fill="white"/>
</mask>
<g mask="url(#mask0_1_1860)">
<path d="M12.6807 0.25C5.68882 0.25 0 5.29698 0 11.5C0 17.703 5.68882 22.75 12.6807 22.75C19.6726 22.75 25.3614 17.703 25.3614 11.5C25.3614 5.29698 19.6726 0.25 12.6807 0.25ZM12.6807 21.2503C6.62059 21.2503 1.6904 16.8764 1.6904 11.5C1.6904 6.12363 6.62059 1.75048 12.6807 1.75048C18.7408 1.75048 23.671 6.12363 23.671 11.5C23.671 16.8764 18.7408 21.2503 12.6807 21.2503Z" fill="white"/>
</g>
<path d="M17.1043 10.7489H13.5262V7.57455C13.5262 7.16043 13.1478 6.82471 12.681 6.82471C12.2143 6.82471 11.8358 7.16043 11.8358 7.57455V10.7489H8.2578C7.79102 10.7489 7.4126 11.0846 7.4126 11.4987C7.4126 11.9129 7.79102 12.2486 8.2578 12.2486H11.8358V15.4229C11.8358 15.8371 12.2143 16.1728 12.681 16.1728C13.1478 16.1728 13.5262 15.8371 13.5262 15.4229V12.2486H17.1043C17.5711 12.2486 17.9495 11.9129 17.9495 11.4987C17.9495 11.0846 17.5711 10.7489 17.1043 10.7489Z" fill="white"/>
</svg>
