<svg width="42" height="28" viewBox="0 0 42 28" fill="none" xmlns="http://www.w3.org/2000/svg">
<mask id="mask0_1_1424" style="mask-type:luminance" maskUnits="userSpaceOnUse" x="0" y="0" width="42" height="28">
<path d="M0.599976 0H41.68V27.7619H0.599976V0Z" fill="white"/>
</mask>
<g mask="url(#mask0_1_1424)">
<path d="M40.9688 20.407C41.5151 21.9446 41.5201 25.5637 41.5201 25.5637C41.4559 25.6247 41.3917 25.6735 41.3275 25.7136L40.9286 23.4072C40.9286 23.4072 40.8153 24.9378 40.8455 25.8287C40.0715 26.1825 39.6184 25.6317 39.6184 25.6317C39.4057 22.7744 39.6322 21.1688 39.8198 20.3739C39.6826 20.1769 39.5983 19.9172 39.5932 19.626C39.5831 19.1484 39.7958 18.7282 40.0966 18.5574L40.0463 13.3397L35.0158 16.4829C34.6357 16.72 34.2015 16.3539 34.1876 15.7751L34.1285 13.7145C34.1184 13.4495 34.0202 13.2107 33.8617 13.0678C25.9817 5.89761 19.5264 6.44849 15.5053 8.17086C11.1242 10.0484 8.64981 13.6047 8.54661 13.7546L8.54157 13.7616C8.43333 13.9185 8.37922 14.1225 8.37922 14.3334L8.40439 16.6398C8.40816 17.2238 7.98528 17.6247 7.59009 17.4016L1.10086 13.7285C0.622597 13.4548 0.612529 12.5308 1.08072 12.238L20.6201 0.095937C20.7687 0.0070295 20.931 5.63413e-05 21.0783 0.0819907L41.1702 11.1432C41.6535 11.4082 41.6686 12.3408 41.1954 12.6389L40.5246 13.0538L40.5737 18.5103C40.9336 18.6114 41.2055 19.0473 41.2143 19.5702C41.2243 19.898 41.1262 20.1961 40.9688 20.407ZM9.36972 14.8424C9.33951 14.8773 9.32063 14.9313 9.32063 14.9924V27.5022C9.32063 27.6521 9.43894 27.748 9.53207 27.6661C10.9908 26.4353 19.9695 19.6731 33.0927 27.7271C33.1871 27.7811 33.2903 27.6922 33.2903 27.5563V14.4484C33.2903 14.3874 33.2701 14.3264 33.2311 14.2916C32.2998 13.3816 20.3105 2.10246 9.36972 14.8424Z" fill="#1F8295"/>
</g>
</svg>
