<svg width="19" height="18" viewBox="0 0 19 18" fill="none" xmlns="http://www.w3.org/2000/svg">
<path fill-rule="evenodd" clip-rule="evenodd" d="M19 9C19 9.6778 18.5277 10.2331 17.9285 10.2822L17.8421 10.2857L3.87801 10.2854L8.50365 15.8415C8.93775 16.3629 8.90899 17.1763 8.43943 17.6584C7.99458 18.115 7.31369 18.1104 6.87414 17.6653L6.8032 17.5871L0.253624 9.72022C-0.0845415 9.31405 -0.0845415 8.68596 0.253624 8.27978L6.8032 0.412934C7.2373 -0.108472 7.96987 -0.140396 8.43943 0.34163C8.88428 0.798287 8.9335 1.55239 8.56834 2.07384L8.50365 2.15851L3.87849 7.71406L17.8421 7.71429C18.4816 7.71429 19 8.28992 19 9Z" fill="#464646"/>
</svg>
