<svg width="26" height="23" viewBox="0 0 26 23" fill="none" xmlns="http://www.w3.org/2000/svg">
<mask id="mask0_1_1881" style="mask-type:luminance" maskUnits="userSpaceOnUse" x="5" y="6" width="16" height="12">
<path d="M5.87927 6.02905H20.4424V17.1941H5.87927V6.02905Z" fill="white"/>
</mask>
<g mask="url(#mask0_1_1881)">
<path d="M13.717 11.5787L20.3366 6.5186C20.484 6.40551 20.484 6.2362 20.3366 6.12311C20.1901 6.01068 19.9695 6.01068 19.8221 6.12311L13.2025 11.1838L6.60701 6.10459C6.46048 5.9915 6.23983 5.9915 6.09244 6.10459C5.94505 6.21769 5.94505 6.38699 6.09244 6.49943L12.6879 11.5787L6.06831 16.6394C5.92092 16.7518 5.92092 16.9211 6.06831 17.0342C6.21483 17.1473 6.46048 17.1473 6.58288 17.0342L13.2025 11.9741L19.7971 17.0342C19.8712 17.0904 19.9695 17.1096 20.0669 17.1096C20.1651 17.1096 20.2634 17.0719 20.3366 17.0342C20.484 16.9211 20.484 16.7518 20.3366 16.6394L13.717 11.5787Z" fill="white"/>
</g>
<mask id="mask1_1_1881" style="mask-type:luminance" maskUnits="userSpaceOnUse" x="0" y="0" width="26" height="23">
<path d="M0.539429 0H25.5394V23H0.539429V0Z" fill="white"/>
</mask>
<g mask="url(#mask1_1_1881)">
<path d="M21.9151 3.39826C19.5397 1.19781 16.3692 -0.0105707 12.999 0.00105974C9.69447 0.0103639 6.53913 1.21991 4.2017 3.36918C1.84025 5.54288 0.539429 8.43067 0.539429 11.5034C0.539429 13.4898 1.08428 15.4007 2.10825 17.0906C2.4698 17.6872 3.40022 17.686 3.76177 17.0894C3.7643 17.0824 3.76809 17.0778 3.77188 17.072C3.93369 16.8056 3.93243 16.4823 3.77188 16.216C2.92869 14.8192 2.44831 13.2119 2.44831 11.5034C2.44831 10.1438 2.75297 8.84936 3.30035 7.67238C3.30541 7.59794 3.31299 7.52351 3.32184 7.44791C3.45964 6.34769 4.09298 5.33586 5.0588 4.67177L5.09293 4.64851C5.35334 4.47057 5.64157 4.34264 5.9475 4.27053C7.83236 2.70509 10.3278 1.75141 13.0622 1.75607C18.8394 1.76537 23.5737 6.0802 23.6381 11.3941C23.6697 14.1458 22.4574 16.6416 20.4853 18.4339C19.9658 19.5155 18.8255 20.2493 17.5411 20.3273C16.1758 20.9192 14.65 21.2507 13.0432 21.2507C12.0938 21.2507 11.1748 21.1344 10.2987 20.9192C9.85881 20.8099 9.39739 21.0018 9.20397 21.3821C9.19765 21.3949 9.19133 21.4077 9.18375 21.4205C8.93724 21.9078 9.23052 22.4777 9.79433 22.6161C10.8411 22.8731 11.9308 23.0057 13.0432 23.0057C16.3831 23.0057 19.5233 21.8101 21.8835 19.6376C24.2462 17.4639 25.547 14.5761 25.547 11.5034C25.547 8.46207 24.2437 5.55567 21.9151 3.39826Z" fill="white"/>
</g>
<path d="M20.4854 18.434C19.6333 19.2097 18.6384 19.8517 17.5411 20.3274C18.8255 20.2494 19.9658 19.5156 20.4854 18.434Z" fill="white"/>
<path d="M5.94769 4.27063C5.64176 4.34274 5.35353 4.47067 5.09311 4.64861L5.05898 4.67187C4.09316 5.33596 3.45982 6.34779 3.32203 7.44802C3.31318 7.52361 3.30559 7.59805 3.30054 7.67248C3.90986 6.36873 4.81879 5.20919 5.94769 4.27063Z" fill="white"/>
</svg>
