<svg width="26" height="24" viewBox="0 0 26 24" fill="none" xmlns="http://www.w3.org/2000/svg">
<mask id="mask0_48_498" style="mask-type:luminance" maskUnits="userSpaceOnUse" x="5" y="6" width="16" height="12">
<path d="M5.87939 6.52905H20.4425V17.6941H5.87939V6.52905Z" fill="white"/>
</mask>
<g mask="url(#mask0_48_498)">
<path d="M13.7173 12.0787L20.3369 7.0186C20.4843 6.90551 20.4843 6.7362 20.3369 6.62311C20.1904 6.51068 19.9697 6.51068 19.8223 6.62311L13.2027 11.6838L6.60725 6.60459C6.46073 6.4915 6.24007 6.4915 6.09268 6.60459C5.94529 6.71769 5.94529 6.88699 6.09268 6.99943L12.6881 12.0787L6.06855 17.1394C5.92116 17.2518 5.92116 17.4211 6.06855 17.5342C6.21508 17.6473 6.46073 17.6473 6.58312 17.5342L13.2027 12.4741L19.7973 17.5342C19.8714 17.5904 19.9697 17.6096 20.0671 17.6096C20.1654 17.6096 20.2636 17.5719 20.3369 17.5342C20.4843 17.4211 20.4843 17.2518 20.3369 17.1394L13.7173 12.0787Z" fill="#ED1F24"/>
</g>
<mask id="mask1_48_498" style="mask-type:luminance" maskUnits="userSpaceOnUse" x="0" y="0" width="26" height="24">
<path d="M0.539551 0.5H25.5395V23.5H0.539551V0.5Z" fill="white"/>
</mask>
<g mask="url(#mask1_48_498)">
<path d="M21.9152 3.89826C19.5399 1.69781 16.3693 0.489429 12.9991 0.50106C9.69459 0.510364 6.53925 1.71991 4.20182 3.86918C1.84037 6.04288 0.539551 8.93067 0.539551 12.0034C0.539551 13.9898 1.0844 15.9007 2.10837 17.5906C2.46992 18.1872 3.40034 18.186 3.76189 17.5894C3.76442 17.5824 3.76821 17.5778 3.772 17.572C3.93382 17.3056 3.93255 16.9823 3.772 16.716C2.92881 15.3192 2.44843 13.7119 2.44843 12.0034C2.44843 10.6438 2.75309 9.34936 3.30047 8.17238C3.30553 8.09794 3.31312 8.02351 3.32196 7.94791C3.45976 6.84769 4.0931 5.83586 5.05892 5.17177L5.09305 5.14851C5.35347 4.97057 5.6417 4.84264 5.94762 4.77053C7.83248 3.20509 10.3279 2.25141 13.0623 2.25607C18.8395 2.26537 23.5738 6.5802 23.6383 11.8941C23.6699 14.6458 22.4575 17.1416 20.4854 18.9339C19.9659 20.0155 18.8256 20.7493 17.5412 20.8273C16.1759 21.4192 14.6501 21.7507 13.0433 21.7507C12.094 21.7507 11.1749 21.6344 10.2989 21.4192C9.85893 21.3099 9.39751 21.5018 9.20409 21.8821C9.19777 21.8949 9.19145 21.9077 9.18387 21.9205C8.93736 22.4078 9.23064 22.9777 9.79446 23.1161C10.8412 23.3731 11.9309 23.5057 13.0433 23.5057C16.3833 23.5057 19.5234 22.3101 21.8836 20.1376C24.2463 17.9639 25.5471 15.0761 25.5471 12.0034C25.5471 8.96207 24.2438 6.05567 21.9152 3.89826Z" fill="#ED1F24"/>
</g>
<path d="M20.4855 18.9338C19.6334 19.7096 18.6385 20.3516 17.5413 20.8272C18.8256 20.7493 19.9659 20.0155 20.4855 18.9338Z" fill="#ED1F24"/>
<path d="M5.94769 4.77075C5.64176 4.84286 5.35353 4.97079 5.09311 5.14874L5.05898 5.172C4.09316 5.83608 3.45982 6.84792 3.32203 7.94814C3.31318 8.02374 3.30559 8.09817 3.30054 8.1726C3.90986 6.86885 4.81879 5.70931 5.94769 4.77075Z" fill="#ED1F24"/>
</svg>
