<svg width="30" height="30" viewBox="0 0 30 30" fill="none" xmlns="http://www.w3.org/2000/svg">
<mask id="mask0_1_3436" style="mask-type:luminance" maskUnits="userSpaceOnUse" x="6" y="7" width="18" height="16">
<path d="M6.40784 7.86429H23.8836V22.4274H6.40784V7.86429Z" fill="white"/>
</mask>
<g mask="url(#mask0_1_3436)">
<path d="M15.8134 15.1029L23.7569 8.50288C23.9338 8.35537 23.9338 8.13453 23.7569 7.98702C23.5811 7.84037 23.3163 7.84037 23.1394 7.98702L15.1959 14.588L7.28135 7.96287C7.10552 7.81536 6.84074 7.81536 6.66387 7.96287C6.487 8.11038 6.487 8.33122 6.66387 8.47786L14.5784 15.1029L6.63491 21.7039C6.45804 21.8505 6.45804 22.0714 6.63491 22.2189C6.81074 22.3664 7.10552 22.3664 7.25239 22.2189L15.1959 15.6188L23.1094 22.2189C23.1984 22.2922 23.3163 22.3172 23.4332 22.3172C23.5511 22.3172 23.669 22.268 23.7569 22.2189C23.9338 22.0714 23.9338 21.8505 23.7569 21.7039L15.8134 15.1029Z" fill="#358E9F"/>
</g>
<mask id="mask1_1_3436" style="mask-type:luminance" maskUnits="userSpaceOnUse" x="0" y="0" width="30" height="30">
<path d="M0 0H30V30H0V0Z" fill="white"/>
</mask>
<g mask="url(#mask1_1_3436)">
<path d="M25.6508 4.43252C22.8004 1.56237 18.9958 -0.0137799 14.9515 0.00139023C10.986 0.0135262 7.19964 1.5912 4.39472 4.39459C1.56098 7.22985 0 10.9965 0 15.0044C0 17.5954 0.653823 20.0879 1.88259 22.292C2.31644 23.0703 3.43295 23.0687 3.86681 22.2905C3.86984 22.2814 3.87439 22.2754 3.87894 22.2678C4.07312 21.9204 4.0716 21.4987 3.87894 21.1513C2.86711 19.3294 2.29066 17.2329 2.29066 15.0044C2.29066 13.2311 2.65625 11.5427 3.31311 10.0075C3.31918 9.91037 3.32828 9.81328 3.3389 9.71468C3.50425 8.27961 4.26426 6.95983 5.42324 6.09362L5.4642 6.06328C5.7767 5.83118 6.12257 5.66432 6.48968 5.57026C8.75152 3.52839 11.7461 2.28446 15.0273 2.29053C21.96 2.30266 27.6411 7.9307 27.7184 14.8618C27.7564 18.451 26.3016 21.7065 23.9351 24.0442C23.3116 25.455 21.9433 26.4122 20.402 26.5138C18.7637 27.286 16.9326 27.7183 15.0046 27.7183C13.8653 27.7183 12.7624 27.5666 11.7112 27.286C11.1833 27.1434 10.6296 27.3937 10.3975 27.8897C10.3899 27.9064 10.3823 27.9231 10.3732 27.9398C10.0774 28.5754 10.4293 29.3187 11.1059 29.4993C12.362 29.8345 13.6696 30.0075 15.0046 30.0075C19.0124 30.0075 22.7806 28.448 25.6129 25.6143C28.4481 22.779 30.0091 19.0123 30.0091 15.0044C30.0091 11.0375 28.4451 7.24654 25.6508 4.43252Z" fill="#358E9F"/>
</g>
<path d="M23.9354 24.0445C22.913 25.0563 21.7191 25.8937 20.4023 26.5141C21.9436 26.4125 23.3119 25.4553 23.9354 24.0445Z" fill="#358E9F"/>
<path d="M6.49005 5.57022C6.12294 5.66427 5.77707 5.83114 5.46457 6.06324L5.42361 6.09358C4.26463 6.95978 3.50462 8.27957 3.33927 9.71464C3.32865 9.81324 3.31954 9.91033 3.31348 10.0074C4.04467 8.30687 5.13538 6.79443 6.49005 5.57022Z" fill="#358E9F"/>
</svg>
