<svg width="26" height="15" viewBox="0 0 26 15" fill="none" xmlns="http://www.w3.org/2000/svg">
<mask id="mask0_48_696" style="mask-type:luminance" maskUnits="userSpaceOnUse" x="0" y="0" width="26" height="15">
<path d="M0 0H26V15H0V0Z" fill="white"/>
</mask>
<g mask="url(#mask0_48_696)">
<path d="M25.2084 13.2022H23.6682C23.4999 12.0661 22.9634 9.96015 21.2462 8.83838C20.8642 8.58854 20.4182 8.39524 19.9123 8.26526C21.2556 7.63305 22.2046 6.11372 22.2046 4.33442C22.2046 1.98958 20.5588 0.0878906 18.5289 0.0878906C16.4989 0.0878906 14.8531 1.98958 14.8531 4.33442C14.8531 6.11372 15.8029 7.63305 17.1462 8.26526C16.6396 8.39524 16.1943 8.58854 15.8123 8.83838C14.0951 9.96015 13.5579 12.0661 13.3903 13.2022H12.6337C12.4653 12.0661 11.9288 9.96015 10.2116 8.83838C9.82966 8.58854 9.38359 8.39524 8.87774 8.26526C10.2211 7.63305 11.1701 6.11372 11.1701 4.33442C11.1701 1.98958 9.52426 0.0878906 7.49432 0.0878906C5.46438 0.0878906 3.81856 1.98958 3.81856 4.33442C3.81856 6.11372 4.7683 7.63305 6.11163 8.26526C5.60506 8.39524 5.15971 8.58854 4.77777 8.83838C3.06052 9.96015 2.52334 12.0661 2.35569 13.2022H0.814835C0.386252 13.2022 0.0385742 13.6032 0.0385742 14.0986C0.0385742 14.5933 0.386252 14.995 0.814835 14.995H25.2084C25.637 14.995 25.9846 14.5933 25.9846 14.0986C25.9846 13.6032 25.637 13.2022 25.2084 13.2022Z" fill="#1D8094"/>
</g>
</svg>
