<svg width="21" height="20" viewBox="0 0 21 20" fill="none" xmlns="http://www.w3.org/2000/svg">
<path d="M8.00003 0C5.38003 0 3.25003 2.13 3.25003 4.75C3.25003 7.32 5.26003 9.4 7.88003 9.49C7.96003 9.48 8.04003 9.48 8.10003 9.49C8.12003 9.49 8.13003 9.49 8.15003 9.49C8.16003 9.49 8.16003 9.49 8.17003 9.49C10.73 9.4 12.74 7.32 12.75 4.75C12.75 2.13 10.62 0 8.00003 0Z" fill="#117891"/>
<path d="M13.08 12.1509C10.29 10.2909 5.74002 10.2909 2.93002 12.1509C1.66002 13.0009 0.960022 14.1509 0.960022 15.3809C0.960022 16.6109 1.66002 17.7509 2.92002 18.5909C4.32002 19.5309 6.16002 20.0009 8.00002 20.0009C9.84002 20.0009 11.68 19.5309 13.08 18.5909C14.34 17.7409 15.04 16.6009 15.04 15.3609C15.03 14.1309 14.34 12.9909 13.08 12.1509Z" fill="#107791"/>
<path d="M18.99 5.3401C19.15 7.2801 17.77 8.9801 15.86 9.2101C15.85 9.2101 15.85 9.2101 15.84 9.2101H15.81C15.75 9.2101 15.69 9.2101 15.64 9.2301C14.67 9.2801 13.78 8.9701 13.11 8.4001C14.14 7.4801 14.73 6.1001 14.61 4.6001C14.54 3.7901 14.26 3.0501 13.84 2.4201C14.22 2.2301 14.66 2.1101 15.11 2.0701C17.07 1.9001 18.82 3.3601 18.99 5.3401Z" fill="#979797"/>
<path d="M20.9901 14.5904C20.9101 15.5604 20.2901 16.4004 19.2501 16.9704C18.2501 17.5204 16.9901 17.7804 15.7401 17.7504C16.4601 17.1004 16.8801 16.2904 16.9601 15.4304C17.0601 14.1904 16.4701 13.0004 15.2901 12.0504C14.6201 11.5204 13.8401 11.1004 12.9901 10.7904C15.2001 10.1504 17.9801 10.5804 19.6901 11.9604C20.6101 12.7004 21.0801 13.6304 20.9901 14.5904Z" fill="#979797"/>
</svg>
