<svg width="26" height="24" viewBox="0 0 26 24" fill="none" xmlns="http://www.w3.org/2000/svg">
<mask id="mask0_48_477" style="mask-type:luminance" maskUnits="userSpaceOnUse" x="0" y="0" width="26" height="24">
<path d="M0 0.75H25.3614V23.25H0V0.75Z" fill="white"/>
</mask>
<g mask="url(#mask0_48_477)">
<path d="M12.6807 0.75C5.68882 0.75 0 5.79698 0 12C0 18.203 5.68882 23.25 12.6807 23.25C19.6726 23.25 25.3614 18.203 25.3614 12C25.3614 5.79698 19.6726 0.75 12.6807 0.75ZM12.6807 21.7503C6.62059 21.7503 1.6904 17.3764 1.6904 12C1.6904 6.62363 6.62059 2.25048 12.6807 2.25048C18.7408 2.25048 23.671 6.62363 23.671 12C23.671 17.3764 18.7408 21.7503 12.6807 21.7503Z" fill="#0E6042"/>
</g>
<path d="M17.1043 11.2489H13.5262V8.07455C13.5262 7.66043 13.1478 7.32471 12.681 7.32471C12.2143 7.32471 11.8358 7.66043 11.8358 8.07455V11.2489H8.2578C7.79102 11.2489 7.4126 11.5846 7.4126 11.9987C7.4126 12.4129 7.79102 12.7486 8.2578 12.7486H11.8358V15.9229C11.8358 16.3371 12.2143 16.6728 12.681 16.6728C13.1478 16.6728 13.5262 16.3371 13.5262 15.9229V12.7486H17.1043C17.5711 12.7486 17.9495 12.4129 17.9495 11.9987C17.9495 11.5846 17.5711 11.2489 17.1043 11.2489Z" fill="#0E6042" fill-opacity="0.9"/>
</svg>
