<svg width="31" height="30" viewBox="0 0 31 30" fill="none" xmlns="http://www.w3.org/2000/svg">
<mask id="mask0_48_4799" style="mask-type:luminance" maskUnits="userSpaceOnUse" x="0" y="0" width="31" height="30">
<path d="M0 0H31V30H0V0Z" fill="white"/>
</mask>
<g mask="url(#mask0_48_4799)">
<path d="M15.5 0C6.95362 0 0 6.72931 0 15C0 23.2707 6.95362 30 15.5 30C24.0464 30 31 23.2707 31 15C31 6.72931 24.0464 0 15.5 0ZM15.5 28.0004C8.09255 28.0004 2.06623 22.1685 2.06623 15C2.06623 7.8315 8.09255 2.00063 15.5 2.00063C22.9074 2.00063 28.9338 7.8315 28.9338 15C28.9338 22.1685 22.9074 28.0004 15.5 28.0004Z" fill="#358E9F"/>
</g>
<path d="M20.9065 13.9985H16.533V9.76606C16.533 9.21391 16.0704 8.76627 15.4998 8.76627C14.9293 8.76627 14.4667 9.21391 14.4667 9.76606V13.9985H10.0932C9.52261 13.9985 9.06006 14.4462 9.06006 14.9983C9.06006 15.5505 9.52261 15.9981 10.0932 15.9981H14.4667V20.2306C14.4667 20.7827 14.9293 21.2304 15.4998 21.2304C16.0704 21.2304 16.533 20.7827 16.533 20.2306V15.9981H20.9065C21.4771 15.9981 21.9396 15.5505 21.9396 14.9983C21.9396 14.4462 21.4771 13.9985 20.9065 13.9985Z" fill="#358E9F"/>
</svg>
