<svg width="30" height="30" viewBox="0 0 30 30" fill="none" xmlns="http://www.w3.org/2000/svg">
<mask id="mask0_114_1475" style="mask-type:luminance" maskUnits="userSpaceOnUse" x="0" y="0" width="30" height="30">
<path d="M0 0H30V30H0V0Z" fill="white"/>
</mask>
<g mask="url(#mask0_114_1475)">
<path d="M15 0C6.72931 0 0 6.72931 0 15C0 23.2707 6.72931 30 15 30C23.2707 30 30 23.2707 30 15C30 6.72931 23.2707 0 15 0ZM15 28.0004C7.8315 28.0004 1.99958 22.1685 1.99958 15C1.99958 7.8315 7.8315 2.00063 15 2.00063C22.1685 2.00063 28.0004 7.8315 28.0004 15C28.0004 22.1685 22.1685 28.0004 15 28.0004Z" fill="#1F8295"/>
</g>
<path d="M20.2328 13.9986H16.0003V9.76609C16.0003 9.21393 15.5526 8.7663 15.0005 8.7663C14.4483 8.7663 14.0007 9.21393 14.0007 9.76609V13.9986H9.76822C9.21607 13.9986 8.76843 14.4462 8.76843 14.9983C8.76843 15.5505 9.21607 15.9981 9.76822 15.9981H14.0007V20.2306C14.0007 20.7828 14.4483 21.2304 15.0005 21.2304C15.5526 21.2304 16.0003 20.7828 16.0003 20.2306V15.9981H20.2328C20.7849 15.9981 21.2325 15.5505 21.2325 14.9983C21.2325 14.4462 20.7849 13.9986 20.2328 13.9986Z" fill="#1F8295"/>
</svg>
