<svg width="25" height="24" viewBox="0 0 25 24" fill="none" xmlns="http://www.w3.org/2000/svg">
<mask id="mask0_48_485" style="mask-type:luminance" maskUnits="userSpaceOnUse" x="0" y="2" width="24" height="22">
<path d="M0.950439 2.22705H23.084V23.5H0.950439V2.22705Z" fill="white"/>
</mask>
<g mask="url(#mask0_48_485)">
<path d="M21.1289 21.7451H2.78528V4.18689H13.7907V2.43188H2.78528C1.77187 2.43188 0.950439 3.21809 0.950439 4.18689V21.7451C0.950439 22.7139 1.77187 23.5001 2.78528 23.5001H21.1289C22.1411 23.5001 22.9625 22.7139 22.9625 21.7451V11.2104H21.1289V21.7451Z" fill="#1F8295"/>
</g>
<path d="M8.28735 16.5056H12.149L21.5079 7.54798L17.6171 3.82397L8.28735 12.7537V16.5056Z" fill="#1F8295" fill-opacity="0.9"/>
<mask id="mask1_48_485" style="mask-type:luminance" maskUnits="userSpaceOnUse" x="18" y="0" width="7" height="7">
<path d="M18.729 0.5H24.9505V6.39538H18.729V0.5Z" fill="white"/>
</mask>
<g mask="url(#mask1_48_485)">
<path d="M24.2604 2.4318L22.9626 1.18969C22.2457 0.503503 21.0853 0.503503 20.3695 1.18969L18.915 2.58299L22.8059 6.30584L24.2604 4.9137C24.9773 4.22751 24.9773 3.11566 24.2604 2.4318Z" fill="#1F8295" fill-opacity="0.9"/>
</g>
</svg>
