<svg width="25" height="23" viewBox="0 0 25 23" fill="none" xmlns="http://www.w3.org/2000/svg">
<mask id="mask0_1_1868" style="mask-type:luminance" maskUnits="userSpaceOnUse" x="0" y="1" width="24" height="22">
<path d="M0.950439 1.72705H23.084V23H0.950439V1.72705Z" fill="white"/>
</mask>
<g mask="url(#mask0_1_1868)">
<path d="M21.1289 21.245H2.78528V3.68677H13.7907V1.93176H2.78528C1.77187 1.93176 0.950439 2.71797 0.950439 3.68677V21.245C0.950439 22.2138 1.77187 23 2.78528 23H21.1289C22.1411 23 22.9625 22.2138 22.9625 21.245V10.7103H21.1289V21.245Z" fill="white"/>
</g>
<path d="M8.28735 16.0056H12.149L21.5079 7.04798L17.6171 3.32397L8.28735 12.2537V16.0056Z" fill="white"/>
<mask id="mask1_1_1868" style="mask-type:luminance" maskUnits="userSpaceOnUse" x="18" y="0" width="7" height="6">
<path d="M18.729 0H24.9505V5.89538H18.729V0Z" fill="white"/>
</mask>
<g mask="url(#mask1_1_1868)">
<path d="M24.2604 1.9318L22.9626 0.689688C22.2457 0.00350255 21.0853 0.00350255 20.3695 0.689688L18.915 2.08299L22.8059 5.80584L24.2604 4.4137C24.9773 3.72751 24.9773 2.61566 24.2604 1.9318Z" fill="white"/>
</g>
</svg>
