<svg width="35" height="22" viewBox="0 0 35 22" fill="none" xmlns="http://www.w3.org/2000/svg">
<mask id="mask0_48_5146" style="mask-type:luminance" maskUnits="userSpaceOnUse" x="0" y="0" width="35" height="22">
<path d="M0.58905 0.5H34.5891V21.5H0.58905V0.5Z" fill="white"/>
</mask>
<g mask="url(#mask0_48_5146)">
<mask id="mask1_48_5146" style="mask-type:luminance" maskUnits="userSpaceOnUse" x="0" y="-9" width="35" height="40">
<path d="M21.7905 -8.56201L34.9271 8.00706L13.3359 30.6887L0.199341 14.1209L21.7905 -8.56201Z" fill="white"/>
</mask>
<g mask="url(#mask1_48_5146)">
<mask id="mask2_48_5146" style="mask-type:luminance" maskUnits="userSpaceOnUse" x="0" y="-9" width="35" height="40">
<path d="M21.7905 -8.56201L34.9271 8.00706L13.3359 30.6887L0.199341 14.1209L21.7905 -8.56201Z" fill="white"/>
</mask>
<g mask="url(#mask2_48_5146)">
<path d="M12.1372 10.3873L12.1578 9.90384C12.2182 8.43473 12.4396 6.58779 13.6263 5.32376C14.7373 4.13431 16.1789 3.51907 17.6819 3.59489L23.7859 3.90561C23.8971 3.91058 24.0062 3.92053 24.1152 3.93296L24.2027 1.78026C24.2199 1.3788 24.4154 1.02706 24.7242 0.841869C25.0352 0.655434 25.3969 0.672835 25.6928 0.887856L33.9962 6.99546C34.2921 7.21421 34.4573 7.58459 34.44 7.98729C34.4238 8.38874 34.2273 8.73924 33.9163 8.92443L25.1496 14.162C24.8365 14.3472 24.4748 14.3286 24.1811 14.111C23.8874 13.8948 23.7222 13.5256 23.7384 13.1229L23.8258 10.9814L12.1372 10.3873ZM33.5676 7.83814C33.56 7.8282 33.5514 7.8195 33.5406 7.8108L25.2393 1.70568C25.1863 1.6684 25.1378 1.6858 25.1129 1.70071C25.0881 1.71563 25.0481 1.75167 25.0438 1.82376L24.911 5.07394L24.4316 4.96705C24.2113 4.91609 23.9802 4.88502 23.7459 4.87383L17.6419 4.5631C16.3667 4.49847 15.1433 5.02049 14.1996 6.03221C13.5032 6.77422 13.1436 7.81453 13.0259 9.46136L24.708 10.0555L24.5806 13.1652C24.5774 13.2385 24.6151 13.2771 24.6389 13.2932C24.6616 13.3106 24.7091 13.3342 24.7663 13.3007L33.5319 8.06311C33.5848 8.03203 33.5978 7.98107 33.5989 7.94254C33.6 7.91769 33.5967 7.87543 33.5676 7.83814ZM0.889218 14.9848C0.718614 14.7698 0.628992 14.4852 0.64195 14.1831C0.659226 13.7817 0.854666 13.4312 1.16564 13.2472L9.93234 8.00966C10.2455 7.82323 10.6072 7.84187 10.9009 8.05938C11.1946 8.27564 11.3598 8.64602 11.3436 9.04748L11.2562 11.189L22.9447 11.7831L22.9242 12.2678C22.8648 13.7357 22.6424 15.5826 21.4546 16.8479C20.3435 18.0374 18.9031 18.6526 17.399 18.5768L11.295 18.2661C11.1838 18.2611 11.0747 18.2511 10.9668 18.2387L10.8782 20.3914C10.862 20.7929 10.6666 21.1446 10.3567 21.3298C10.0457 21.5175 9.68508 21.4988 9.38814 21.2838L1.08466 15.1762C1.01123 15.1215 0.945367 15.0581 0.888139 14.986L0.889218 14.9848ZM10.4701 8.90082C10.4604 8.88963 10.4506 8.88217 10.4442 8.87596C10.4215 8.85856 10.374 8.83619 10.3178 8.86975L1.55004 14.1086C1.49713 14.1396 1.48417 14.1906 1.48202 14.2291C1.48094 14.2614 1.48741 14.3199 1.54032 14.3609L9.84272 20.466C9.89563 20.5033 9.94422 20.4859 9.96798 20.471C9.99281 20.456 10.0328 20.42 10.036 20.3479L10.1688 17.0965L10.6493 17.2046C10.8696 17.2543 11.0996 17.2854 11.3339 17.2978L17.4379 17.6073C18.7131 17.6719 19.9365 17.1499 20.8802 16.1382C21.5767 15.3962 21.9362 14.3559 22.055 12.7091L10.3718 12.115L10.4992 9.00522C10.5014 8.95799 10.4863 8.92443 10.469 8.90206L10.4701 8.90082Z" fill="#70856E"/>
</g>
</g>
</g>
</svg>
