<svg width="40" height="28" viewBox="0 0 40 28" fill="none" xmlns="http://www.w3.org/2000/svg">
<mask id="mask0_114_1507" style="mask-type:luminance" maskUnits="userSpaceOnUse" x="0" y="2" width="26" height="27">
<path d="M0 2.1026H25.8227V28.0001H0V2.1026Z" fill="white"/>
</mask>
<g mask="url(#mask0_114_1507)">
<path d="M23.5417 25.8634H2.14067V4.48816H14.9804V2.35162H2.14067C0.95834 2.35162 0 3.30875 0 4.48816V25.8634C0 27.0428 0.95834 27.9999 2.14067 27.9999H23.5417C24.7226 27.9999 25.681 27.0428 25.681 25.8634V13.0385H23.5417V25.8634Z" fill="#1F8295"/>
</g>
<mask id="mask1_114_1507" style="mask-type:luminance" maskUnits="userSpaceOnUse" x="10" y="0" width="30" height="16">
<path d="M10 0H40V16H10V0Z" fill="white"/>
</mask>
<g mask="url(#mask1_114_1507)">
<path d="M35.6181 6.42583L27.9498 1.17606C27.6627 0.975548 27.2708 0.943649 26.9488 1.09403C26.6218 1.24214 26.4171 1.54518 26.4171 1.87557V4.50046H23.5415C17.7278 4.50046 13 8.8183 13 14.125C13 14.5306 13.307 14.8838 13.7389 14.9772C13.8113 14.9932 13.8862 15 13.9585 15C14.3155 15 14.65 14.8177 14.8147 14.5169L15.0419 14.1068C16.5122 11.4204 19.4677 9.75023 22.7552 9.75023H26.4171V12.3751C26.4171 12.7055 26.6218 13.0086 26.9463 13.1567C27.2708 13.307 27.6602 13.2751 27.9498 13.0746L35.6181 7.82486C35.8577 7.6608 36 7.40105 36 7.12534C36 6.84964 35.8577 6.58989 35.6181 6.42583Z" fill="#1F8295"/>
</g>
</svg>
