<svg width="26" height="28" viewBox="0 0 26 28" fill="none" xmlns="http://www.w3.org/2000/svg">
<path fill-rule="evenodd" clip-rule="evenodd" d="M18.04 24H24.9619C25.5358 24 26 23.5533 26 23.0009C26 22.4467 25.5358 22 24.9619 22H18.04C17.4662 22 17 22.4467 17 23.0009C17 23.5533 17.4662 24 18.04 24Z" fill="#1F8295"/>
<path fill-rule="evenodd" clip-rule="evenodd" d="M20.1721 19.3206L17.3138 22.2284C16.8954 22.6558 16.8954 23.3442 17.3138 23.7716L20.1721 26.6794C20.5885 27.1069 21.2698 27.1069 21.6862 26.6794C22.1046 26.2561 22.1046 25.5636 21.6862 25.1382L19.5879 23.001L21.6862 20.8618C22.1046 20.4364 22.1046 19.7439 21.6862 19.3206C21.2698 18.8931 20.5885 18.8931 20.1721 19.3206Z" fill="#1F8295"/>
<mask id="mask0_1_1433" style="mask-type:luminance" maskUnits="userSpaceOnUse" x="0" y="0" width="25" height="28">
<path d="M0.209961 0H24.6076V27.7619H0.209961V0Z" fill="white"/>
</mask>
<g mask="url(#mask0_1_1433)">
<path fill-rule="evenodd" clip-rule="evenodd" d="M13.9834 -0.0654297H4.16573C3.17725 -0.0654297 2.23092 0.309092 1.53171 0.970869C0.834419 1.63628 0.441711 2.53623 0.441711 3.47435C0.441711 8.40495 0.441711 19.1334 0.441711 24.064C0.441711 25.0021 0.834419 25.9039 1.53171 26.5675C2.23092 27.2311 3.17725 27.6038 4.16573 27.6038H23.123C23.6842 27.6038 24.1383 27.1711 24.1383 26.6384V25.0294H22.7609C22.8624 25.7075 22.6402 26.422 22.0904 26.9438C21.1652 27.8219 19.6652 27.8219 18.74 26.9438L16.0312 24.3694C15.7458 24.0985 15.5504 23.7785 15.4393 23.4349L15.4374 23.4295C15.378 23.2404 15.3416 23.0386 15.3378 22.8313V22.7241C15.3416 22.5168 15.378 22.3168 15.4374 22.1259L15.4393 22.1205C15.5504 21.7787 15.7458 21.4569 16.0312 21.186L18.74 18.6116C19.6652 17.7335 21.1652 17.7335 22.0904 18.6116C22.6402 19.1334 22.8624 19.8479 22.7609 20.526H24.1383V9.5867H17.7074C15.65 9.5867 13.9834 8.00316 13.9834 6.04873V-0.0654297ZM16.014 0.505444V6.04873C16.014 6.93595 16.7726 7.65591 17.7074 7.65591H23.5387C23.508 7.625 23.4774 7.59409 23.4448 7.56319C22.0655 6.25236 17.491 1.90536 16.1136 0.596347C16.081 0.56544 16.0485 0.534533 16.014 0.505444Z" fill="#1F8295"/>
</g>
</svg>
