<svg width="25" height="21" viewBox="0 0 25 21" fill="none" xmlns="http://www.w3.org/2000/svg">
<path d="M16.7274 2.38973C16.7634 2.38866 16.7994 2.38758 16.8365 2.38648C17.1 2.3858 17.3203 2.43829 17.516 2.6293C17.6556 2.79391 17.6977 2.92014 17.698 3.13378C17.6981 3.17462 17.6983 3.21545 17.6984 3.25753C17.6984 3.30251 17.6983 3.3475 17.6983 3.39384C17.6984 3.44154 17.6985 3.48923 17.6987 3.53837C17.699 3.67097 17.6991 3.80358 17.6991 3.93618C17.6992 4.07911 17.6995 4.22204 17.6997 4.36497C17.7003 4.67761 17.7005 4.99024 17.7007 5.30287C17.7008 5.49804 17.701 5.6932 17.7011 5.88837C17.7016 6.4286 17.702 6.96883 17.7022 7.50906C17.7022 7.56093 17.7022 7.56093 17.7022 7.61385C17.7022 7.64852 17.7022 7.68318 17.7022 7.7189C17.7022 7.78915 17.7023 7.85939 17.7023 7.92964C17.7023 7.98191 17.7023 7.98191 17.7023 8.03523C17.7025 8.59993 17.7032 9.16463 17.7041 9.72933C17.705 10.3089 17.7055 10.8885 17.7056 11.4681C17.7056 11.7936 17.7058 12.1191 17.7066 12.4446C17.7072 12.7218 17.7074 12.9989 17.7071 13.2761C17.7069 13.4175 17.7069 13.5589 17.7075 13.7003C17.708 13.8536 17.7078 14.0069 17.7074 14.1602C17.7078 14.2273 17.7078 14.2273 17.7083 14.2957C17.7066 14.5595 17.6863 14.7524 17.5049 14.9545C17.4815 14.974 17.4581 14.9936 17.434 15.0138C17.4106 15.0338 17.3872 15.0539 17.3631 15.0746C17.207 15.1865 17.0301 15.1776 16.8471 15.1882C16.7791 15.1925 16.711 15.1969 16.643 15.2013C16.5893 15.2048 16.5893 15.2048 16.5346 15.2083C14.4012 15.3497 12.3757 15.8998 10.7545 17.3936C10.6913 17.4503 10.6272 17.5056 10.5627 17.5608C10.5246 17.5933 10.4866 17.6257 10.4475 17.6592C10.442 16.1345 10.4378 14.6097 10.4353 13.085C10.435 12.9049 10.4347 12.7248 10.4344 12.5447C10.4343 12.5089 10.4342 12.473 10.4342 12.4361C10.4331 11.8559 10.4313 11.2757 10.4291 10.6955C10.4268 10.1 10.4255 9.5045 10.425 8.90899C10.4247 8.54164 10.4237 8.1743 10.4217 7.80695C10.4204 7.55492 10.4201 7.3029 10.4204 7.05087C10.4205 6.90553 10.4203 6.76023 10.419 6.61489C10.4176 6.45707 10.4181 6.29929 10.4188 6.14146C10.4181 6.09587 10.4174 6.05028 10.4167 6.00331C10.4202 5.68345 10.503 5.48325 10.6863 5.22687C10.7092 5.19457 10.7321 5.16227 10.7557 5.12899C10.9296 4.88925 11.1251 4.6684 11.3233 4.44985C11.3606 4.40818 11.3606 4.40818 11.3987 4.36566C12.7315 2.93302 14.8652 2.42251 16.7274 2.38973Z" fill="#107791"/>
<path d="M3.04275 2.38656C3.08102 2.38676 3.11929 2.38696 3.15871 2.38717C4.5089 2.40886 5.89066 2.71276 7.07939 3.38121C7.11879 3.40172 7.15818 3.42224 7.19877 3.44338C7.68303 3.6994 8.08232 4.06218 8.47392 4.4449C8.49965 4.46916 8.52538 4.49342 8.55189 4.51841C8.77917 4.73921 8.97465 4.99846 9.15126 5.26312C9.16848 5.28847 9.1857 5.31383 9.20345 5.33995C9.365 5.60373 9.37832 5.82558 9.37443 6.13223C9.37469 6.20637 9.37469 6.20637 9.37495 6.28202C9.37522 6.41834 9.3746 6.55461 9.3736 6.69093C9.37273 6.83826 9.37303 6.98558 9.37318 7.13291C9.37328 7.38787 9.37266 7.64281 9.37154 7.89777C9.36992 8.26638 9.3694 8.63499 9.36915 9.00361C9.36871 9.60173 9.36739 10.1998 9.3655 10.798C9.36367 11.3788 9.36226 11.9597 9.36142 12.5406C9.36136 12.5764 9.36131 12.6122 9.36126 12.6491C9.361 12.8289 9.36075 13.0087 9.3605 13.1884C9.35844 14.6787 9.35493 16.1689 9.35047 17.6592C9.30665 17.6207 9.26284 17.5823 9.21904 17.5438C9.19464 17.5224 9.17024 17.5009 9.1451 17.4789C9.07727 17.4188 9.01014 17.358 8.94332 17.2968C7.37061 15.8659 5.34478 15.3383 3.29132 15.2186C3.18451 15.2122 3.07776 15.2052 2.971 15.1981C2.93888 15.1965 2.90675 15.1948 2.87366 15.1931C2.64992 15.1779 2.47374 15.1317 2.30362 14.9706C2.28457 14.9465 2.26551 14.9225 2.24588 14.8977C2.22631 14.8737 2.20674 14.8496 2.18658 14.8248C2.0999 14.6973 2.09393 14.5851 2.09372 14.4346C2.09357 14.3938 2.09342 14.3529 2.09326 14.3108C2.09329 14.2658 2.09333 14.2208 2.09336 14.1745C2.09324 14.1268 2.09313 14.079 2.093 14.0299C2.09272 13.8972 2.09261 13.7646 2.09258 13.6319C2.09251 13.4889 2.09221 13.346 2.09194 13.203C2.0914 12.8902 2.09116 12.5775 2.09098 12.2647C2.09087 12.0695 2.0907 11.8743 2.09052 11.679C2.09004 11.1386 2.08963 10.5981 2.08949 10.0577C2.08948 10.0231 2.08948 9.98852 2.08947 9.95288C2.08946 9.9182 2.08945 9.88352 2.08944 9.84779C2.08942 9.77752 2.0894 9.70724 2.08939 9.63697C2.08938 9.60211 2.08937 9.56725 2.08936 9.53134C2.0892 8.96643 2.08851 8.40152 2.08758 7.8366C2.08663 7.25678 2.08614 6.67696 2.08609 6.09714C2.08606 5.77152 2.08583 5.44591 2.0851 5.12029C2.08449 4.84304 2.08428 4.56579 2.08461 4.28853C2.08477 4.14706 2.08473 4.0056 2.08417 3.86413C2.08367 3.71078 2.0839 3.55744 2.08432 3.40408C2.084 3.35935 2.08367 3.31462 2.08334 3.26854C2.08478 3.04393 2.09188 2.87793 2.21849 2.68572C2.48362 2.42532 2.68965 2.38434 3.04275 2.38656Z" fill="#107791"/>
<path d="M18.5493 5.2545C18.6477 5.25312 18.7462 5.25212 18.8447 5.25133C18.8863 5.25069 18.8863 5.25069 18.9287 5.25004C19.1941 5.24844 19.3538 5.29754 19.577 5.44977C19.7721 5.65633 19.7892 5.85437 19.7912 6.13409C19.7908 6.20453 19.7908 6.20453 19.7904 6.2764C19.7906 6.32665 19.7908 6.37689 19.7909 6.42866C19.7913 6.56782 19.7912 6.70697 19.7908 6.84614C19.7906 6.99634 19.791 7.14653 19.7913 7.29673C19.7918 7.59085 19.7917 7.88496 19.7913 8.17908C19.7911 8.41811 19.7911 8.65715 19.7912 8.89618C19.7912 8.9302 19.7912 8.96422 19.7912 8.99927C19.7913 9.06838 19.7913 9.13749 19.7913 9.2066C19.7917 9.85466 19.7913 10.5027 19.7907 11.1508C19.7902 11.7068 19.7903 12.2629 19.7908 12.819C19.7914 13.4647 19.7916 14.1104 19.7913 14.7562C19.7913 14.825 19.7912 14.8939 19.7912 14.9628C19.7912 14.9966 19.7911 15.0305 19.7911 15.0654C19.791 15.3042 19.7912 15.5429 19.7915 15.7817C19.7918 16.0726 19.7917 16.3636 19.7911 16.6545C19.7908 16.803 19.7907 16.9514 19.791 17.0999C19.7915 17.2608 19.791 17.4216 19.7904 17.5825C19.7906 17.6295 19.7909 17.6765 19.7912 17.7248C19.7896 17.9526 19.7868 18.1262 19.6608 18.3204C19.4514 18.5325 19.2979 18.6162 19.0075 18.6136C18.7809 18.5953 18.5588 18.5405 18.3365 18.4923C17.8147 18.3797 17.2937 18.2871 16.7645 18.224C16.7378 18.2208 16.7111 18.2176 16.6836 18.2143C16.5134 18.1941 16.3432 18.1752 16.1728 18.1581C16.1217 18.1529 16.1217 18.1529 16.0695 18.1475C15.7941 18.121 15.521 18.1105 15.2445 18.1093C15.2013 18.109 15.158 18.1087 15.1135 18.1084C14.9747 18.1077 14.8359 18.1074 14.6971 18.1074C14.6498 18.1073 14.6024 18.1073 14.5537 18.1073C13.6357 18.1081 12.7681 18.1691 11.8692 18.3797C11.8134 18.3927 11.8134 18.3927 11.7564 18.406C11.7073 18.4179 11.7073 18.4179 11.6573 18.43C11.5733 18.4421 11.5733 18.4421 11.4583 18.4015C12.1017 17.6836 12.9593 17.25 13.8347 16.9408C13.8779 16.925 13.9211 16.9093 13.9656 16.8931C14.7795 16.6106 15.6437 16.507 16.4962 16.4716C17.0685 16.4468 17.567 16.3423 18.0126 15.9263C18.3984 15.469 18.5164 14.9558 18.517 14.355C18.5172 14.3159 18.5174 14.2769 18.5176 14.2367C18.5181 14.1064 18.5185 13.9761 18.5188 13.8457C18.5192 13.7521 18.5195 13.6585 18.5199 13.565C18.521 13.3111 18.5218 13.0573 18.5225 12.8035C18.5234 12.5381 18.5244 12.2727 18.5255 12.0074C18.5272 11.5621 18.5287 11.1167 18.5302 10.6714C18.5317 10.2128 18.5333 9.75423 18.535 9.29563C18.5351 9.2532 18.5351 9.2532 18.5353 9.20992C18.5358 9.068 18.5363 8.92609 18.5369 8.78417C18.5412 7.60761 18.5453 6.43106 18.5493 5.2545Z" fill="#979797"/>
<path d="M0.953368 5.25035C0.981895 5.25053 1.01042 5.25071 1.03981 5.2509C1.10991 5.25138 1.18 5.25211 1.2501 5.25288C1.25022 5.30146 1.25035 5.35004 1.25048 5.40009C1.25351 6.55416 1.25693 7.70822 1.26082 8.86229C1.2613 9.00444 1.26178 9.1466 1.26225 9.28875C1.26234 9.31705 1.26244 9.34535 1.26254 9.37451C1.26406 9.83227 1.26531 10.29 1.26647 10.7478C1.26766 11.2178 1.26914 11.6878 1.27088 12.1577C1.27185 12.4216 1.27268 12.6855 1.2732 12.9493C1.27369 13.1978 1.27454 13.4463 1.27565 13.6948C1.276 13.7858 1.27622 13.8769 1.2763 13.968C1.27642 14.0926 1.27702 14.2173 1.27772 14.3419C1.27765 14.3777 1.27758 14.4135 1.2775 14.4503C1.282 14.9839 1.41424 15.4721 1.7622 15.8701C1.79536 15.9028 1.82853 15.9354 1.8627 15.9691C1.89587 16.0025 1.92904 16.036 1.96321 16.0705C2.39099 16.4382 2.92789 16.4627 3.45401 16.4877C5.11786 16.5698 6.91871 17.0118 8.18018 18.2422C8.23242 18.3088 8.28378 18.3763 8.33333 18.4451C8.10704 18.4055 7.88083 18.3655 7.65492 18.3234C7.6184 18.3167 7.58188 18.31 7.54425 18.3031C7.47163 18.2898 7.39904 18.2762 7.32649 18.2625C6.60633 18.1318 5.89212 18.1053 5.16263 18.1077C5.11619 18.1078 5.06975 18.1079 5.0219 18.108C4.3064 18.1099 3.6056 18.1344 2.89647 18.2422C2.87142 18.2459 2.84637 18.2497 2.82056 18.2535C2.25946 18.3371 1.69855 18.4272 1.14568 18.5601C0.855001 18.6275 0.589095 18.6551 0.323265 18.497C0.178367 18.3876 0.0816736 18.2604 0.0248897 18.0798C0.0212417 18.0112 0.0198089 17.9424 0.0196437 17.8737C0.0194494 17.8308 0.0192551 17.7879 0.0190549 17.7437C0.0190359 17.6964 0.0190168 17.6491 0.0189972 17.6004C0.0187455 17.5253 0.0187455 17.5253 0.0184887 17.4486C0.0180649 17.3093 0.0178143 17.17 0.0176394 17.0306C0.0174114 16.8805 0.0169669 16.7303 0.0165563 16.5801C0.0156173 16.2173 0.0150573 15.8545 0.014563 15.4917C0.0144209 15.3893 0.0142688 15.2868 0.014113 15.1844C0.0131468 14.5482 0.0123024 13.912 0.0118262 13.2758C0.011714 13.1284 0.0116006 12.981 0.0114852 12.8337C0.0114566 12.797 0.0114281 12.7604 0.0113987 12.7227C0.0109142 12.1293 0.00964207 11.5359 0.00804689 10.9425C0.00642277 10.3334 0.00552039 9.72423 0.00532032 9.11508C0.0051896 8.77303 0.00473949 8.431 0.00347855 8.08896C0.00240645 7.79766 0.00198531 7.50638 0.00241394 7.21508C0.00261253 7.06648 0.00250207 6.9179 0.00155382 6.7693C0.00053375 6.60811 0.00100126 6.44693 0.00161063 6.28573C0.000813364 6.21549 0.000813378 6.21549 0 6.14383C0.00257859 5.86726 0.0358782 5.66469 0.216328 5.45584C0.449327 5.26611 0.669154 5.24689 0.953368 5.25035Z" fill="#979797"/>
</svg>
