<svg width="15" height="12" viewBox="0 0 15 12" fill="none" xmlns="http://www.w3.org/2000/svg">
<mask id="mask0_48_5119" style="mask-type:luminance" maskUnits="userSpaceOnUse" x="0" y="0" width="15" height="12">
<path d="M0 0H14.5631V11.165H0V0Z" fill="white"/>
</mask>
<g mask="url(#mask0_48_5119)">
<path d="M7.83783 5.54954L14.4574 0.489491C14.6048 0.376399 14.6048 0.207091 14.4574 0.0939989C14.3109 -0.0184321 14.0902 -0.0184321 13.9429 0.0939989L7.32326 5.15471L0.727798 0.0754808C0.581271 -0.0376115 0.360618 -0.0376115 0.213228 0.0754808C0.0658388 0.188573 0.0658388 0.357881 0.213228 0.470312L6.80869 5.54954L0.189094 10.6103C0.0417049 10.7227 0.0417049 10.892 0.189094 11.0051C0.335622 11.1182 0.581271 11.1182 0.703664 11.0051L7.32326 5.94503L13.9179 11.0051C13.992 11.0613 14.0902 11.0805 14.1876 11.0805C14.2859 11.0805 14.3842 11.0428 14.4574 11.0051C14.6048 10.892 14.6048 10.7227 14.4574 10.6103L7.83783 5.54954Z" fill="#ED1F24"/>
</g>
</svg>
