<svg width="15" height="15" viewBox="0 0 15 15" fill="none" xmlns="http://www.w3.org/2000/svg">
<circle cx="7.5" cy="7.5" r="2.5" fill="#A4A4A4"/>
<path d="M12.5127 7.48309C12.4743 9.56178 11.2152 11.48 9.23025 12.205C7.21333 12.9365 4.90734 12.3208 3.54544 10.6462C0.667822 7.11107 3.87943 1.67022 8.38253 2.52355C10.7784 2.98579 12.4678 5.07098 12.5127 7.48309C12.5387 9.06141 14.9989 9.06141 14.9669 7.48309C14.909 4.31996 12.969 1.52932 9.98857 0.432312C7.06556 -0.639116 3.62882 0.336051 1.68277 2.74816C-0.263743 5.14771 -0.565772 8.5801 1.0083 11.2619C2.62036 14.0144 5.81945 15.3937 8.92869 14.8227C12.4423 14.1814 14.909 10.9797 14.9669 7.48309C14.9989 5.90478 12.5387 5.90478 12.5127 7.48309Z" fill="#1F8194"/>
</svg>
