<svg width="23" height="19" viewBox="0 0 23 19" fill="none" xmlns="http://www.w3.org/2000/svg">
<mask id="mask0_48_427" style="mask-type:luminance" maskUnits="userSpaceOnUse" x="4" y="0" width="19" height="19">
<path d="M4.74396 0H22.6615V19H4.74396V0Z" fill="white"/>
</mask>
<g mask="url(#mask0_48_427)">
<path d="M21.4426 7.79021H20.4914C20.339 7.02183 20.0343 6.29274 19.6513 5.60731L20.339 4.87822C20.5655 4.6381 20.5655 4.19278 20.339 3.9483L18.8112 2.33295C18.5847 2.09283 18.1647 2.09283 17.9341 2.33295L17.2505 3.06204C16.641 2.65602 15.9533 2.33295 15.1915 2.13212V1.07996C15.1915 0.717601 14.9238 0.394531 14.5408 0.394531H12.3707C12.0247 0.394531 11.72 0.678309 11.72 1.07996V2.09283C10.9952 2.25437 10.3116 2.57744 9.66099 2.97909L8.9774 2.25437C8.74679 2.00988 8.32676 2.00988 8.10027 2.25437L6.57248 3.86971C6.34599 4.10983 6.34599 4.55515 6.57248 4.79963L7.26019 5.52436C6.87721 6.1705 6.57248 6.89959 6.38305 7.66797H5.39061C5.04881 7.66797 4.74408 7.95175 4.74408 8.3534V10.6585C4.74408 11.0209 5.01175 11.344 5.39061 11.344H6.34599C6.49836 12.1124 6.80309 12.8415 7.18195 13.5269L6.57248 14.1337C6.34599 14.3739 6.34599 14.8192 6.57248 15.0636L8.10027 16.679C8.32676 16.9235 8.74679 16.9235 8.9774 16.679L9.66099 15.9499C10.2705 16.3559 10.9582 16.679 11.6829 16.8798V17.932C11.6829 18.2943 11.9506 18.6174 12.3295 18.6174H14.5038C14.8456 18.6174 15.1503 18.338 15.1503 17.932V16.9628C15.8751 16.8012 16.5628 16.4782 17.2093 16.0722L17.897 16.8012C18.1276 17.0414 18.5436 17.0414 18.7742 16.8012L20.2978 15.1859C20.5284 14.9414 20.5284 14.4961 20.2978 14.256L19.6142 13.5269C19.9931 12.8807 20.2978 12.1517 20.4914 11.3833H21.4426C21.7844 11.3833 22.0933 11.1039 22.0933 10.6978V8.39706C22.0933 8.06962 21.8256 7.79021 21.4426 7.79021ZM13.4743 13.7714C11.2629 13.7714 9.47157 11.8722 9.47157 9.5278C9.47157 7.18336 11.2629 5.24495 13.4743 5.24495C15.6857 5.24495 17.477 7.14407 17.477 9.48415C17.477 11.8286 15.6857 13.7714 13.4743 13.7714Z" fill="#107791"/>
</g>
<path d="M12.011 4.1921H0.639584C0.279255 4.1921 0 3.82611 0 3.35386C0 2.87768 0.279255 2.51562 0.639584 2.51562H12.011C12.3743 2.51562 12.6506 2.87768 12.6506 3.35386C12.6235 3.82611 12.3443 4.1921 12.011 4.1921Z" fill="#979797"/>
<path d="M9.00823 10.0593H0.479688C0.209441 10.0593 0 9.69723 0 9.22105C0 8.7488 0.209441 8.38281 0.479688 8.38281H9.00823C9.28073 8.38281 9.48792 8.7488 9.48792 9.22105C9.46765 9.69723 9.25821 10.0593 9.00823 10.0593Z" fill="#979797"/>
<path d="M12.011 15.9265H0.639584C0.279255 15.9265 0 15.5605 0 15.0882C0 14.6121 0.279255 14.25 0.639584 14.25H12.011C12.3743 14.25 12.6506 14.6121 12.6506 15.0882C12.6235 15.5605 12.3443 15.9265 12.011 15.9265Z" fill="#979797"/>
</svg>
