<svg width="23" height="23" viewBox="0 0 23 23" fill="none" xmlns="http://www.w3.org/2000/svg">
<path d="M11.4214 3.4673C11.4912 3.47104 11.4912 3.47104 11.5625 3.47485C12.0035 3.5536 12.3812 3.79194 12.7634 4.01479C12.8191 4.04695 12.8748 4.07909 12.9305 4.1112C13.0978 4.20781 13.2647 4.30498 13.4316 4.40224C13.4793 4.43 13.5271 4.45776 13.5762 4.48636C13.7978 4.61533 14.0193 4.74462 14.2406 4.87409C14.5243 5.0399 14.809 5.20405 15.0937 5.36806C15.6935 5.71355 16.2912 6.06232 16.8888 6.41157C17.3977 6.70899 17.9072 7.00542 18.418 7.2997C18.9301 7.59483 19.4416 7.89086 19.9513 8.19011C20.0379 8.2408 20.1245 8.2913 20.2113 8.34163C20.3362 8.41412 20.4609 8.48716 20.5854 8.56032C20.6412 8.59243 20.6412 8.59243 20.6982 8.62519C20.9322 8.76372 21.1124 8.8888 21.2003 9.15834C21.2039 9.33994 21.1761 9.46824 21.0684 9.61317C20.7716 9.85891 20.4281 10.0413 20.0913 10.2252C19.7261 10.4272 19.3633 10.6321 19.0048 10.8457C18.6479 11.0582 18.2894 11.2675 17.9294 11.4746C17.5507 11.6926 17.1725 11.9113 16.7952 12.1316C16.751 12.1574 16.7068 12.1832 16.6613 12.2098C16.5281 12.2876 16.3949 12.3654 16.2617 12.4433C15.6596 12.7952 15.0567 13.1458 14.4524 13.4939C14.1218 13.6844 13.7919 13.8763 13.4625 14.0689C13.331 14.1456 13.1994 14.2222 13.0678 14.2989C12.9798 14.3502 12.8919 14.4016 12.804 14.4532C12.6756 14.5285 12.5469 14.6033 12.4181 14.6781C12.3799 14.7007 12.3417 14.7232 12.3023 14.7464C11.9754 14.9352 11.6856 15.02 11.3091 15.0206C11.2782 15.0217 11.2473 15.0228 11.2155 15.024C10.7146 15.0267 10.2924 14.764 9.87438 14.5153C9.79715 14.47 9.71992 14.4248 9.64268 14.3795C9.564 14.3333 9.48543 14.287 9.40689 14.2405C9.21904 14.1297 9.03055 14.02 8.84202 13.9103C8.57541 13.7551 8.30917 13.5993 8.04285 13.4437C7.53391 13.1463 7.02444 12.8498 6.51366 12.5556C5.91395 12.21 5.31617 11.8613 4.71863 11.512C4.58514 11.434 4.45163 11.3561 4.31811 11.2781C4.27392 11.2523 4.22974 11.2265 4.18422 11.1999C3.90072 11.0346 3.61665 10.8702 3.3322 10.7065C3.13758 10.5945 2.94315 10.4821 2.74874 10.3697C2.65284 10.3143 2.55686 10.2592 2.46078 10.2042C2.32346 10.1255 2.18648 10.0463 2.04955 9.96693C2.00843 9.94357 1.96731 9.9202 1.92494 9.89612C1.67993 9.75325 1.48726 9.63104 1.39538 9.34926C1.39168 9.16428 1.43778 9.05562 1.52734 8.89442C1.67219 8.7668 1.82402 8.66725 1.99147 8.5719C2.03788 8.54532 2.0843 8.51874 2.13211 8.49136C2.18177 8.46316 2.23143 8.43496 2.28259 8.4059C2.36175 8.36065 2.44088 8.31532 2.52 8.26999C2.57402 8.23905 2.62805 8.20813 2.68209 8.17724C2.94199 8.02858 3.20057 7.87769 3.45898 7.72646C3.88167 7.47938 4.30552 7.23436 4.72977 6.98998C5.05548 6.80226 5.38051 6.61341 5.70507 6.42372C6.07871 6.20536 6.45311 5.98837 6.82812 5.77235C7.42905 5.42615 8.02813 5.07682 8.62677 4.72667C8.8966 4.56886 9.16657 4.41128 9.43681 4.25416C9.52508 4.20281 9.6133 4.15138 9.70147 4.09987C9.82914 4.02537 9.95702 3.95125 10.085 3.87721C10.1228 3.85506 10.1606 3.8329 10.1996 3.81007C10.5927 3.58365 10.9594 3.43715 11.4214 3.4673Z" fill="white"/>
<path d="M4.62695 12.668C4.79884 12.6992 4.92082 12.7431 5.07143 12.8327C5.11378 12.8577 5.15613 12.8827 5.19977 12.9084C5.26784 12.9492 5.26784 12.9492 5.33728 12.9908C5.43501 13.0486 5.53275 13.1064 5.6305 13.1642C5.70527 13.2086 5.70527 13.2086 5.78156 13.254C6.00808 13.3883 6.23559 13.5209 6.46313 13.6534C6.52939 13.6921 6.52939 13.6921 6.59699 13.7316C6.97685 13.9531 7.35778 14.1728 7.73883 14.3923C8.07131 14.5839 8.4031 14.7767 8.73449 14.9702C8.77878 14.996 8.82306 15.0218 8.86868 15.0484C9.07755 15.1701 9.28602 15.2924 9.4936 15.4163C10.3136 15.9032 11.1253 16.1696 12.0868 15.9332C12.517 15.7883 12.9071 15.5472 13.2969 15.3184C13.3358 15.2956 13.3747 15.2728 13.4148 15.2493C13.6181 15.13 13.8208 15.0099 14.0233 14.8893C14.302 14.7238 14.5826 14.5619 14.8635 14.4003C15.3749 14.106 15.8848 13.8094 16.3942 13.5117C16.5395 13.4268 16.685 13.342 16.8304 13.2572C16.8795 13.2286 16.9286 13.2 16.9791 13.1705C17.0731 13.1158 17.1671 13.061 17.2612 13.0062C17.3035 12.9815 17.3459 12.9568 17.3895 12.9314C17.4266 12.9097 17.4638 12.8881 17.502 12.8658C17.5779 12.8212 17.6529 12.7748 17.727 12.7273C17.834 12.668 17.834 12.668 17.9687 12.668C17.9719 13.0335 17.9743 13.399 17.9757 13.7646C17.9764 13.9344 17.9774 14.1042 17.9789 14.274C17.9804 14.4382 17.9812 14.6025 17.9815 14.7668C17.9818 14.829 17.9823 14.8913 17.983 14.9535C17.99 15.5718 17.9267 16.1132 17.4816 16.5716C17.2061 16.8251 16.9057 17.0056 16.579 17.1854C16.5233 17.2166 16.4677 17.2478 16.412 17.279C16.2979 17.3431 16.1837 17.407 16.0695 17.4707C15.8157 17.6126 15.5643 17.7585 15.3127 17.9042C15.2168 17.9595 15.1209 18.0148 15.025 18.0702C14.8253 18.1855 14.626 18.3014 14.4269 18.4176C13.0773 19.2041 11.7875 19.813 10.196 19.4078C9.37556 19.1783 8.65421 18.7085 7.92472 18.2827C7.72761 18.1678 7.53001 18.0538 7.33233 17.9399C7.23589 17.8843 7.13951 17.8287 7.04319 17.7729C6.81823 17.6427 6.59297 17.5132 6.36613 17.3863C6.2867 17.3418 6.20741 17.2971 6.12815 17.2524C6.02932 17.1966 5.93025 17.1413 5.83089 17.0865C5.36563 16.8229 4.90157 16.4947 4.72365 15.9697C4.62269 15.5976 4.60926 15.245 4.61379 14.8614C4.61404 14.7977 4.61423 14.734 4.61437 14.6704C4.61488 14.5046 4.6162 14.3389 4.6177 14.1732C4.61909 14.0034 4.61969 13.8335 4.62037 13.6636C4.62181 13.3317 4.6241 12.9999 4.62695 12.668Z" fill="#979797"/>
<path d="M21.0684 10.8262C21.0684 10.8542 21.0684 10.8822 21.0684 10.9111C21.0691 11.5935 21.071 12.2759 21.0743 12.9582C21.0758 13.2882 21.077 13.6182 21.0771 13.9482C21.0773 14.2358 21.0782 14.5234 21.0801 14.8111C21.081 14.9634 21.0816 15.1156 21.0812 15.2679C21.081 15.438 21.0822 15.608 21.0837 15.7781C21.0833 15.8285 21.0829 15.8789 21.0825 15.9309C21.0836 16.2089 21.0836 16.2089 21.2211 16.4432C21.2596 16.4723 21.2982 16.5013 21.3379 16.5312C21.5889 16.8799 21.5929 17.1931 21.5625 17.6094C21.4899 17.8913 21.2922 18.1048 21.0684 18.2832C20.7467 18.4619 20.4022 18.5057 20.0469 18.4108C19.7 18.282 19.5017 18.0834 19.3206 17.765C19.1809 17.4502 19.1992 17.1327 19.3138 16.8138C19.3931 16.6423 19.4985 16.4868 19.6309 16.3516C19.6605 16.3516 19.6902 16.3516 19.7207 16.3516C19.7192 16.2928 19.7177 16.234 19.7162 16.1735C19.7025 15.619 19.6924 15.0646 19.6858 14.51C19.6823 14.2248 19.6775 13.9398 19.6699 13.6548C19.6625 13.3795 19.6585 13.1044 19.6568 12.829C19.6555 12.7241 19.6531 12.6193 19.6495 12.5144C19.6227 11.7131 19.6227 11.7131 19.7868 11.5067C19.9691 11.3512 20.1722 11.2691 20.3945 11.1855C20.4627 11.1478 20.5303 11.1088 20.5963 11.0675C20.6715 11.0245 20.6715 11.0245 20.7483 10.9806C20.7749 10.9653 20.8014 10.95 20.8288 10.9342C21.0179 10.8262 21.0179 10.8262 21.0684 10.8262Z" fill="#107791"/>
</svg>
