<svg width="25" height="22" viewBox="0 0 25 22" fill="none" xmlns="http://www.w3.org/2000/svg">
<path d="M9.9668 8.4337C9.9668 9.66518 11.0765 10.6668 12.44 10.6668C13.8046 10.6668 14.9142 9.66518 14.9142 8.4337C14.9142 7.20221 13.8046 6.20062 12.44 6.20062C11.0765 6.20062 9.9668 7.20221 9.9668 8.4337ZM14.0831 8.4337C14.0831 9.25198 13.3463 9.91735 12.44 9.91735C11.5336 9.91735 10.7968 9.25198 10.7968 8.4337C10.7968 7.61642 11.5336 6.95106 12.44 6.95106C13.3463 6.95106 14.0831 7.61642 14.0831 8.4337Z" fill="#19467E"/>
<path d="M11.5044 11.3859C9.44565 11.3859 7.7688 12.8989 7.7688 14.7583C7.7688 16.1599 9.03346 17.3002 10.5856 17.3002H14.3998C15.9531 17.3002 17.2167 16.1599 17.2167 14.7583C17.2167 12.8989 15.5409 11.3859 13.4811 11.3859H11.5044ZM16.3855 14.7583C16.3855 15.7467 15.4949 16.5508 14.3998 16.5508H10.5856C9.49057 16.5508 8.59992 15.7467 8.59992 14.7583C8.59992 13.3121 9.90277 12.1363 11.5044 12.1363H13.4811C15.0827 12.1363 16.3855 13.3121 16.3855 14.7583Z" fill="#19467E"/>
<mask id="mask0_48_5136" style="mask-type:luminance" maskUnits="userSpaceOnUse" x="0" y="0" width="25" height="22">
<path d="M0 0.5H25V21.5H0V0.5Z" fill="white"/>
</mask>
<g mask="url(#mask0_48_5136)">
<path d="M12.7454 0.58587C12.596 0.483584 12.3893 0.483584 12.2399 0.58587L0.194257 8.90749C0.052741 9.00471 -0.00453944 9.17282 0.0527408 9.32574C0.110021 9.47765 0.268384 9.57994 0.446963 9.57994H1.90705V18.6844H1.52069C1.29044 18.6844 1.10512 18.8525 1.10512 19.0601V21.115C1.10512 21.3226 1.29044 21.4907 1.52069 21.4907H23.4646C23.6937 21.4907 23.8802 21.3226 23.8802 21.115V19.0601C23.8802 18.8525 23.6937 18.6844 23.4646 18.6844H23.0783V9.57994H24.5383C24.7169 9.57994 24.8753 9.47765 24.9326 9.32574C24.9887 9.17282 24.9326 9.00471 24.791 8.90749L12.7454 0.58587ZM23.0502 20.7402H1.93513V19.4348H23.0491V20.7402H23.0502ZM22.6627 8.83052C22.4336 8.83052 22.2471 8.99762 22.2471 9.20523V18.6844H2.73817V9.20523C2.73817 8.99762 2.55173 8.83052 2.32261 8.83052H1.67343L12.4927 1.35656L23.3119 8.83052H22.6627Z" fill="#19467E"/>
</g>
</svg>
